<svg width="218" height="218" viewBox="0 0 218 218" fill="none" xmlns="http://www.w3.org/2000/svg">
<path d="M109 215C167.542 215 215 167.542 215 109C215 50.4578 167.542 3 109 3C50.4578 3 3 50.4578 3 109C3 167.542 50.4578 215 109 215Z" fill="#273D76" stroke="#818B89" stroke-width="6" stroke-miterlimit="10"/>
<path d="M152.692 38.1608C152.434 36.6095 151.658 35.3169 150.624 34.2827C145.971 30.9217 141.575 29.6291 137.697 30.4047C127.356 31.9559 117.79 47.4681 109.517 76.9413C109.517 76.9413 109 78.2339 108.741 79.2681C108.483 80.8193 108.224 82.3705 107.707 83.9217C107.707 84.1803 107.707 84.1803 107.707 84.1803C107.707 84.1803 107.707 84.6973 107.449 84.9559C107.449 85.2144 106.931 86.5071 106.931 86.5071L99.951 113.136C94.0047 134.336 89.0925 149.073 85.2144 157.605C78.2339 172.341 69.4437 180.614 58.5851 182.166C56.7754 182.424 54.7071 181.907 52.6388 180.356C50.5705 178.805 49.0193 176.478 47.7266 173.375C47.4681 172.6 47.2095 172.083 46.6925 172.083C45.9169 172.083 45.3998 173.117 45.3998 174.668C46.1754 178.546 47.9851 181.649 51.3461 184.492C54.4486 187.336 58.0681 188.371 61.6876 187.853C72.2876 186.302 82.112 176.736 90.9022 159.414C93.7461 153.727 99.4339 139.249 107.707 115.98C111.585 103.829 114.946 93.4876 117.79 84.6973C117.79 84.6973 118.307 82.6291 118.566 81.8534C118.566 81.5949 119.6 78.4925 119.6 78.4925C119.858 77.9754 120.117 76.6827 120.375 76.1656C124.253 65.0486 126.58 58.5852 127.356 56.7754C131.234 47.4681 136.146 42.5559 142.092 41.7803C144.678 41.2632 146.746 42.0388 148.297 44.1071C149.073 45.1412 149.849 45.3998 150.366 45.3998C152.434 44.3656 153.21 42.2973 152.692 38.1608Z" fill="white"/>
<path fill-rule="evenodd" clip-rule="evenodd" d="M159.673 83.6635L160.19 83.1465C160.707 82.8879 160.966 82.3709 160.707 82.1123C160.449 81.5953 159.673 81.5953 158.639 82.1123L157.346 82.6294L154.761 81.3367L155.536 81.0782C156.053 80.8196 156.312 80.5611 156.053 80.044C155.795 79.527 155.278 79.2684 154.502 79.7855H152.951C149.849 77.9757 148.039 77.4587 147.522 77.7172C147.263 77.7172 147.005 77.9757 147.005 78.2343C146.746 78.4928 146.746 78.7514 146.746 79.0099C146.746 79.2684 147.263 79.7855 148.297 80.3026C149.332 80.8196 151.141 82.1123 153.21 84.1806C155.019 85.9904 156.571 88.8343 156.571 88.8343L155.795 89.3514C152.693 90.9026 150.366 91.9367 149.073 92.9709C148.814 92.9709 148.297 92.4538 147.263 91.9367C146.229 91.4196 145.453 90.9026 145.195 90.9026C144.936 90.9026 144.419 90.9026 143.902 91.1611C143.644 91.4197 143.385 91.4197 143.385 91.6782C143.644 91.9367 145.195 92.7123 147.263 94.5221C147.522 94.7806 146.746 95.0392 146.746 95.2977C146.746 95.5562 147.78 95.2977 147.78 95.5562C147.78 97.8831 147.263 99.9514 147.522 100.468C147.78 100.468 148.039 100.468 148.297 100.21C148.814 99.9514 149.332 99.6928 149.59 99.4343C149.849 99.1758 149.849 98.4001 150.107 97.1075C150.366 95.8148 150.624 95.2977 150.624 95.0392C152.175 94.7806 153.985 94.005 155.795 93.2294C157.605 92.4538 158.639 91.9367 158.639 91.9367C158.639 91.9367 159.932 95.2977 159.932 97.6245C159.932 100.727 159.932 102.795 159.673 103.829C159.414 105.122 159.414 105.639 159.673 105.898C159.673 106.156 159.932 106.156 160.449 106.415C160.707 106.415 161.224 106.415 161.224 106.415C161.741 106.156 162.517 104.346 163.293 100.986L164.844 100.21C165.619 99.9514 165.878 99.4343 165.619 98.9172C165.361 98.4001 165.102 98.4001 164.327 98.4001L163.551 98.6587L164.327 95.8148L165.361 95.2977C166.395 94.7806 166.912 94.2636 166.653 93.7465C166.395 93.2294 166.136 93.2294 165.361 93.4879L164.844 93.7465L165.361 89.3514L169.756 87.8001C172.858 86.5075 174.151 85.4733 173.634 84.4392C173.375 83.9221 172.6 83.9221 171.307 84.1806C170.014 84.4392 164.327 86.5075 164.327 86.5075L159.673 83.6635Z" fill="white"/>
<path d="M63.756 104.863C62.2048 106.673 60.6535 108.741 59.3609 110.81C57.8096 112.878 56.517 114.946 55.4828 117.014C54.9657 118.049 54.4487 119.083 53.9316 120.375C53.6731 121.41 53.156 122.702 53.4145 123.736C53.4145 124.254 53.6731 124.771 53.9316 125.288C54.1901 125.805 54.7072 126.063 55.2243 126.322C56.2584 126.839 57.2926 127.097 58.5853 127.097C59.8779 127.097 60.9121 127.097 62.2048 126.839C63.4975 126.58 64.5316 126.58 65.8243 126.322C68.1511 125.805 70.4779 125.288 72.8048 124.512C77.4584 123.219 82.1121 121.668 86.7658 119.858C95.8145 116.497 104.863 112.878 113.912 109C122.961 105.122 131.751 101.244 140.541 96.8486L142.093 100.468C133.044 104.346 123.995 108.224 114.946 111.585C105.897 115.205 96.5901 118.566 87.2828 121.668C82.6292 123.219 77.9755 124.512 73.0633 125.805C70.7365 126.322 68.4096 126.839 65.8243 127.356C64.5316 127.614 63.4975 127.614 62.2048 127.873C60.9121 127.873 59.6194 128.132 58.3267 127.873C57.8096 127.873 57.034 127.873 56.517 127.614C55.9999 127.356 55.2243 127.356 54.7072 126.839C54.1901 126.58 53.6731 126.063 53.156 125.546C52.8974 125.029 52.6389 124.254 52.6389 123.478C52.6389 122.702 52.6389 122.185 52.8974 121.41C53.156 120.893 53.156 120.117 53.4145 119.6C53.9316 118.307 54.4487 117.273 54.9657 116.239C56.2584 114.171 57.5511 112.102 59.1023 110.034C60.395 108.483 61.9462 106.673 63.756 104.863Z" fill="white"/>
</svg>
